<?xml version="1.0" standalone="no"?>
<!DOCTYPE svg PUBLIC "-//W3C//DTD SVG 20010904//EN"
 "http://www.w3.org/TR/2001/REC-SVG-20010904/DTD/svg10.dtd">
<svg version="1.0" xmlns="http://www.w3.org/2000/svg"
 width="300.000000pt" height="300.000000pt" viewBox="0 0 300.000000 300.000000"
 preserveAspectRatio="xMidYMid meet">
<metadata>
Created by potrace 1.11, written by Peter Selinger 2001-2013
</metadata>
<g transform="translate(0.000000,300.000000) scale(0.100000,-0.100000)"
fill="#000000" stroke="none">
<path d="M0 1500 l0 -1500 1500 0 1500 0 0 1500 0 1500 -1500 0 -1500 0 0
-1500z m1612 1015 c37 -7 89 -24 115 -36 39 -19 67 -23 153 -24 123 -1 215
-27 284 -80 36 -27 53 -33 114 -37 89 -7 160 -40 224 -105 63 -64 79 -122 85
-318 6 -167 -8 -273 -52 -414 l-26 -82 -49 36 c-61 45 -121 71 -185 80 -29 4
-69 19 -94 36 -75 49 -147 71 -251 76 -59 3 -116 12 -150 25 -177 64 -394 64
-565 -1 -31 -12 -86 -21 -145 -24 -104 -5 -176 -27 -251 -76 -25 -17 -65 -32
-94 -36 -64 -9 -124 -35 -185 -80 l-49 -36 -26 81 c-56 180 -71 406 -39 585
16 85 19 92 67 142 66 70 137 104 229 111 61 4 78 10 114 37 69 53 161 79 284
80 86 1 114 5 153 24 102 48 224 61 339 36z"/>
<path d="M1267 2073 c-43 -86 -75 -158 -73 -160 2 -2 20 -1 41 3 35 6 38 11
111 155 40 82 74 151 74 154 0 3 -17 5 -38 5 l-38 0 -77 -157z"/>
<path d="M1455 2165 c-34 -62 -36 -68 -33 -147 l3 -83 33 -3 32 -3 0 93 c1 75
3 90 13 77 7 -8 23 -28 35 -45 l24 -29 31 38 c18 20 36 37 41 37 5 0 7 -38 4
-85 l-4 -85 33 0 33 0 0 150 0 150 -35 0 c-29 0 -39 -7 -68 -45 l-34 -44 -32
44 c-18 25 -34 45 -36 45 -2 0 -20 -29 -40 -65z"/>
<path d="M1075 2192 c-50 -11 -80 -22 -79 -29 1 -7 2 -74 3 -148 1 -153 -3
-146 87 -124 34 9 49 19 60 42 l16 30 -46 -6 c-46 -7 -46 -6 -46 23 0 31 5 34
78 45 39 6 42 9 42 37 0 29 0 30 -42 23 -24 -3 -50 -9 -59 -11 -18 -5 -34 35
-20 49 4 4 35 13 69 19 59 11 62 13 62 40 0 33 -8 34 -125 10z"/>
<path d="M1867 2197 c-3 -7 -30 -72 -61 -144 -48 -117 -53 -133 -36 -133 10 0
26 -3 34 -6 12 -5 19 2 27 25 12 33 22 36 79 24 26 -5 36 -14 48 -44 11 -30
21 -38 46 -42 17 -2 32 -4 33 -3 3 2 -97 319 -101 322 -13 10 -65 10 -69 1z
m63 -174 c0 -2 -13 -3 -30 -3 -34 0 -36 7 -14 58 l16 37 14 -45 c7 -25 14 -46
14 -47z"/>
<path d="M2090 2155 c0 -3 18 -41 40 -85 l40 -80 -50 -64 c-49 -63 -50 -64
-26 -70 13 -3 31 -8 38 -11 9 -4 25 9 43 35 l29 41 27 -59 c21 -47 33 -61 59
-71 18 -6 34 -10 35 -9 2 2 -15 43 -37 92 -43 98 -44 86 20 165 l34 41 -27 10
c-40 15 -48 13 -77 -22 l-27 -33 -23 52 c-13 33 -30 55 -42 59 -12 3 -29 8
-38 10 -10 3 -18 3 -18 -1z"/>
<path d="M760 2106 l-65 -23 3 -149 c2 -82 5 -150 6 -152 2 -1 18 3 36 9 31
11 32 13 27 55 -3 31 0 47 10 56 13 10 21 6 48 -26 30 -36 35 -38 69 -32 20 4
36 11 36 15 0 5 -13 25 -30 46 l-30 37 21 30 c12 16 23 46 26 68 5 32 1 43
-20 64 -31 31 -52 31 -137 2z m88 -85 c-2 -18 -14 -32 -40 -46 -20 -11 -39
-17 -42 -15 -2 3 -6 23 -8 45 -3 37 -1 40 32 51 43 14 62 2 58 -35z"/>
</g>
</svg>
