<!-- Generator: Adobe Illustrator 20.1.0, SVG Export Plug-In  -->
<svg version="1.1"
	 xmlns="http://www.w3.org/2000/svg" xmlns:xlink="http://www.w3.org/1999/xlink" xmlns:a="http://ns.adobe.com/AdobeSVGViewerExtensions/3.0/"
	 x="0px" y="0px" width="354.357px" height="371.213px" viewBox="0 0 354.357 371.213"
	 style="enable-background:new 0 0 354.357 371.213;" xml:space="preserve">
<style type="text/css">
	.st0{fill:#AA353E;}
	.st1{fill:#DD4B39;}
</style>
<defs>
</defs>
<polygon class="st0" points="276.869,344.636 309.557,319.634 310.419,180.925 275.706,184.099 "/>
<polygon class="st1" points="120.403,249.244 121.566,344.636 57.002,344.054 57.584,184.68 0,184.099 59.329,123.606 
	57.584,13.673 115.168,13.673 115.168,65.441 166.936,10.765 333.871,185.844 275.706,184.099 276.869,344.636 218.122,342.891 
	219.285,222.488 158.211,221.906 "/>
<polygon class="st0" points="167.538,343.57 133.752,371.213 131.909,252.656 166.616,228.085 "/>
<polygon class="st0" points="333.871,185.844 354.357,176.617 183.771,0 166.936,10.765 "/>
<polygon class="st0" points="115.168,65.441 131.217,49.97 132.94,12.923 115.168,13.673 "/>
</svg>