<!-- Generator: Adobe Illustrator 20.1.0, SVG Export Plug-In  -->
<svg version="1.1"
	 xmlns="http://www.w3.org/2000/svg" xmlns:xlink="http://www.w3.org/1999/xlink" xmlns:a="http://ns.adobe.com/AdobeSVGViewerExtensions/3.0/"
	 x="0px" y="0px" width="1132.171px" height="324.378px" viewBox="0 0 1132.171 324.378"
	 style="enable-background:new 0 0 1132.171 324.378;" xml:space="preserve">
<style type="text/css">
	.st0{fill:#D6223B;}
	.st1{fill:#3E4C9A;}
	.st2{fill:#D6223C;}
	.st3{fill:#0A2C49;}
</style>
<defs>
</defs>
<path class="st0" d="M0.595,308.308l56.543,0.595l1.19-100.587l80.946,100.587l91.064-0.595l39.878-54.162l-10.118-0.595
	l0.595-70.828l55.948-1.786l18.451-24.403l-0.595-23.808l-74.399-1.19l-1.19-62.495h82.136l1.19-48.806l-141.655-0.595l0.595,282.12
	l-77.375-97.611c8.569-2.443,28.666-9.422,45.83-28.569c4.646-5.183,21.957-25.627,24.403-57.138
	c0.465-5.997,3.079-48.901-29.759-77.97c-16.328-14.454-34.83-18.531-44.044-20.236c-40.275,0-79.954-0.595-120.228-0.595
	L0.595,308.308z"/>
<polygon class="st1" points="232.124,324.378 289.262,324.378 517.22,0.595 458.891,0 "/>
<polygon class="st0" points="342.829,269.026 342.234,308.308 310.689,308.904 "/>
<polygon class="st2" points="346.4,307.118 549.36,20.832 589.833,20.236 591.023,201.174 722.56,19.046 764.224,19.046 
	766.009,307.713 708.871,307.713 710.061,129.751 579.715,308.904 538.647,307.713 538.052,128.561 410.086,308.308 "/>
<polygon class="st2" points="784.829,308.054 784.829,20.854 830.589,20.418 948.694,189.513 966.126,165.107 866.761,20.418 
	933.005,20.854 999.684,117.604 1067.67,20.418 1126.505,21.29 1029.755,160.749 1132.171,308.489 1065.056,308.054 
	996.197,209.124 979.201,233.094 1030.626,308.054 966.562,308.054 946.951,279.29 925.596,309.361 864.582,308.925 916.88,234.837 
	916.88,232.658 909.471,223.07 836.254,223.07 835.383,308.054 "/>
<path class="st3" d="M57.023,69.665l44.453-0.872c4.415,0.779,11.335,2.609,18.304,7.409c11.736,8.082,21.036,22.806,20.483,40.095
	c-0.488,15.244-8.561,30.114-21.791,37.916c-6.909,4.075-13.62,5.275-17.868,5.666c-14.527,0.145-29.054,0.291-43.581,0.436V69.665z
	"/>
<polygon class="st3" points="836.254,121.962 836.254,174.259 874.606,174.259 "/>
</svg>