<!-- Generator: Adobe Illustrator 19.2.1, SVG Export Plug-In  -->
<svg version="1.1"
	 xmlns="http://www.w3.org/2000/svg" xmlns:xlink="http://www.w3.org/1999/xlink" xmlns:a="http://ns.adobe.com/AdobeSVGViewerExtensions/3.0/"
	 x="0px" y="0px" width="1612.412px" height="483.348px" viewBox="0 0 1612.412 483.348"
	 style="enable-background:new 0 0 1612.412 483.348;" xml:space="preserve">
<style type="text/css">
	.st0{fill:#404040;}
	.st1{fill:url(#SVGID_1_);}
	.st2{fill:#135891;}
	.st3{fill:#0E426D;}
	.st4{fill:#0A2C49;}
	.st5{fill:#FFFFFF;}
	.st6{fill:none;}
	.st7{fill:#999999;}
	.st8{font-family:'HPSimplified-Regular';}
	.st9{font-size:150.7129px;}
	.st10{fill:url(#SVGID_2_);}
	.st11{font-family:'HPSimplified-Bold';}
	.st12{font-size:109px;}
	.st13{letter-spacing:-1;}
</style>
<defs>
</defs>
<g>
	<g>
		<path class="st0" d="M1108.133,196.161c0,34.965-21.25,53.503-47.172,53.503c-26.826,0-45.666-20.799-45.666-51.544
			c0-32.252,20.045-53.352,47.174-53.352C1090.199,144.768,1108.133,166.018,1108.133,196.161z M1029.311,197.819
			c0,21.702,11.756,41.144,32.404,41.144c20.797,0,32.553-19.14,32.553-42.199c0-20.195-10.549-41.294-32.402-41.294
			C1040.162,155.47,1029.311,175.514,1029.311,197.819z"/>
		<path class="st0" d="M1147.471,248.006l-33.158-101.58h14.168l15.824,50.036c4.371,13.715,8.139,26.073,10.852,37.979h0.301
			c2.863-11.755,7.084-24.565,11.605-37.828l17.182-50.187h14.016l-36.322,101.58H1147.471z"/>
		<path class="st0" d="M1261.859,200.381h-39.486v36.623h44.008v11.002h-57.119v-101.58h54.859v11.002h-41.748v32.102h39.486
			V200.381z"/>
		<path class="st0" d="M1283.41,147.783c6.631-1.356,16.127-2.11,25.17-2.11c14.016,0,23.059,2.562,29.389,8.289
			c5.123,4.521,7.986,11.454,7.986,19.291c0,13.413-8.439,22.306-19.141,25.923v0.452c7.838,2.713,12.51,9.946,14.922,20.496
			c3.314,14.167,5.727,23.963,7.836,27.882h-13.564c-1.656-2.863-3.918-11.605-6.781-24.265
			c-3.014-14.016-8.439-19.291-20.346-19.743h-12.359v44.008h-13.111V147.783z M1296.521,194.052h13.414
			c14.016,0,22.908-7.687,22.908-19.291c0-13.112-9.494-18.839-23.359-18.99c-6.33,0-10.852,0.604-12.963,1.206V194.052z"/>
		<path class="st0" d="M1362.686,232.03c5.877,3.617,14.469,6.632,23.51,6.632c13.414,0,21.25-7.084,21.25-17.332
			c0-9.495-5.424-14.921-19.139-20.195c-16.578-5.878-26.828-14.469-26.828-28.786c0-15.824,13.113-27.58,32.855-27.58
			c10.4,0,17.936,2.411,22.457,4.974l-3.617,10.7c-3.316-1.809-10.098-4.822-19.291-4.822c-13.865,0-19.141,8.289-19.141,15.222
			c0,9.495,6.18,14.167,20.195,19.593c17.182,6.631,25.922,14.92,25.922,29.841c0,15.674-11.605,29.238-35.568,29.238
			c-9.795,0-20.496-2.863-25.922-6.48L1362.686,232.03z"/>
		<path class="st0" d="M1451.906,146.427v101.58h-13.111v-101.58H1451.906z"/>
		<path class="st0" d="M1494.105,157.579h-30.895v-11.152h75.203v11.152h-31.045v90.427h-13.264V157.579z"/>
		<path class="st0" d="M1602.316,200.381h-39.486v36.623h44.008v11.002h-57.119v-101.58h54.857v11.002h-41.746v32.102h39.486
			V200.381z"/>
	</g>
	<g>
	</g>
	
		<radialGradient id="SVGID_1_" cx="649.4493" cy="301.2941" r="46.8126" gradientTransform="matrix(1 0 0 0.2 0 238.1278)" gradientUnits="userSpaceOnUse">
		<stop  offset="0" style="stop-color:#B3B3B3"/>
		<stop  offset="0.2396" style="stop-color:#B7B7B7;stop-opacity:0.7604"/>
		<stop  offset="0.4645" style="stop-color:#C2C2C2;stop-opacity:0.5355"/>
		<stop  offset="0.6835" style="stop-color:#D5D5D5;stop-opacity:0.3165"/>
		<stop  offset="0.8977" style="stop-color:#F0F0F0;stop-opacity:0.1023"/>
		<stop  offset="1" style="stop-color:#FFFFFF;stop-opacity:0"/>
	</radialGradient>
	<ellipse class="st1" cx="649.449" cy="298.387" rx="46.508" ry="9.231"/>
	<g>
		<path class="st2" d="M766.676,47.606c50.277,0,119.245,71.191,148.417,161.226l45.43,32.234v33.051l27.639-0.06
			C969.465,122.232,860.58,0,785.372,0c-75.207,0-135.85,89.985-143.473,246.663h7.55C658.549,128.247,704.65,47.606,766.676,47.606
			z"/>
		<path class="st3" d="M746.668,70.117c43.095,0,108.788,78.013,129.761,163.311l36.664-26.015l2,1.419
			c-29.172-90.035-98.141-161.226-148.417-161.226c-62.025,0-108.127,80.64-117.226,199.056h5.538
			C660.844,147.192,696.724,70.117,746.668,70.117z"/>
		<polygon class="st4" points="844.454,274.37 866.158,274.37 866.158,274.323 		"/>
		<path class="st4" d="M866.158,240.716l10.272-7.288c-20.974-85.299-86.667-163.311-129.761-163.311
			c-49.944,0-85.824,77.075-91.681,176.546h2.474c4.625-78.55,31.843-139.415,71.282-139.415
			c39.44,0,111.086,88.572,115.711,167.122l21.703-0.047V240.716z"/>
		<path class="st5" d="M928.266,274.188c0.004,0.061,0.011,0.121,0.016,0.182h32.241v-0.252L928.266,274.188z"/>
		<path class="st5" d="M882.772,274.287c0.001,0.028,0.004,0.055,0.006,0.083h45.504c-0.004-0.061-0.011-0.121-0.016-0.182
			L882.772,274.287z"/>
		<path class="st5" d="M866.158,274.323v0.047h16.621c-0.002-0.028-0.004-0.055-0.006-0.083L866.158,274.323z"/>
	</g>
	<polygon class="st2" points="720.884,158.827 649.292,286.406 578.014,158.686 650.123,235.621 	"/>
</g>
<g>
	<rect x="0" y="171.268" class="st6" width="752.219" height="120.794"/>
	<path class="st7" d="M7.956,213.125c0-6.758-0.218-12.208-0.436-17.221h8.61l0.437,9.046h0.218
		c3.924-6.431,10.137-10.245,18.747-10.245c12.752,0,22.344,10.79,22.344,26.812c0,18.965-11.554,28.338-23.979,28.338
		c-6.976,0-13.08-3.052-16.24-8.283h-0.218v28.665H7.956V213.125z M17.439,227.185c0,1.417,0.218,2.725,0.436,3.924
		c1.744,6.648,7.521,11.226,14.387,11.226c10.137,0,16.022-8.283,16.022-20.382c0-10.572-5.559-19.619-15.695-19.619
		c-6.539,0-12.643,4.687-14.496,11.88c-0.327,1.199-0.653,2.616-0.653,3.924V227.185z"/>
	<path class="st7" d="M117.715,221.845c0,19.51-13.515,28.011-26.267,28.011c-14.278,0-25.287-10.463-25.287-27.139
		c0-17.657,11.554-28.011,26.158-28.011C107.47,194.705,117.715,205.714,117.715,221.845z M75.861,222.39
		c0,11.553,6.649,20.273,16.022,20.273c9.155,0,16.022-8.61,16.022-20.491c0-8.938-4.469-20.273-15.805-20.273
		C80.767,201.899,75.861,212.362,75.861,222.39z"/>
	<path class="st7" d="M132.87,195.904l6.976,26.812c1.525,5.886,2.942,11.335,3.924,16.785h0.327
		c1.198-5.341,2.942-11.008,4.687-16.676l8.61-26.921h8.065l8.175,26.376c1.962,6.322,3.487,11.88,4.687,17.221h0.327
		c0.872-5.341,2.289-10.899,4.032-17.112l7.521-26.485h9.482l-17.003,52.753h-8.719l-8.066-25.178
		c-1.853-5.885-3.378-11.117-4.687-17.33h-0.218c-1.308,6.321-2.942,11.771-4.796,17.439l-8.501,25.069h-8.72l-15.913-52.753H132.87
		z"/>
	<path class="st7" d="M213.529,224.025c0.219,12.97,8.502,18.311,18.094,18.311c6.866,0,11.008-1.198,14.604-2.725l1.635,6.867
		c-3.379,1.525-9.155,3.27-17.548,3.27c-16.24,0-25.94-10.682-25.94-26.595s9.374-28.447,24.741-28.447
		c17.222,0,21.799,15.15,21.799,24.851c0,1.962-0.218,3.488-0.326,4.469H213.529z M241.65,217.158
		c0.108-6.104-2.507-15.586-13.298-15.586c-9.7,0-13.951,8.937-14.714,15.586H241.65z"/>
	<path class="st7" d="M262.797,212.362c0-6.212-0.108-11.553-0.436-16.458h8.393l0.327,10.354h0.436
		c2.398-7.084,8.175-11.553,14.605-11.553c1.09,0,1.853,0.109,2.725,0.327v9.047c-0.98-0.218-1.962-0.327-3.27-0.327
		c-6.758,0-11.554,5.123-12.861,12.316c-0.218,1.308-0.437,2.833-0.437,4.469v28.121h-9.482V212.362z"/>
	<path class="st7" d="M302.691,224.025c0.219,12.97,8.502,18.311,18.094,18.311c6.866,0,11.008-1.198,14.604-2.725l1.635,6.867
		c-3.379,1.525-9.155,3.27-17.548,3.27c-16.24,0-25.94-10.682-25.94-26.595s9.374-28.447,24.741-28.447
		c17.222,0,21.799,15.15,21.799,24.851c0,1.962-0.218,3.488-0.326,4.469H302.691z M330.812,217.158
		c0.108-6.104-2.507-15.586-13.298-15.586c-9.7,0-13.951,8.937-14.714,15.586H330.812z"/>
	<path class="st7" d="M397.519,171.272v63.761c0,4.687,0.109,10.028,0.437,13.625h-8.611l-0.436-9.156h-0.218
		c-2.943,5.885-9.374,10.354-17.984,10.354c-12.752,0-22.562-10.79-22.562-26.812c-0.108-17.548,10.79-28.338,23.651-28.338
		c8.065,0,13.516,3.814,15.913,8.065h0.219v-31.499H397.519z M387.928,217.376c0-1.199-0.109-2.833-0.437-4.033
		c-1.417-6.104-6.648-11.117-13.842-11.117c-9.919,0-15.805,8.719-15.805,20.382c0,10.681,5.232,19.51,15.587,19.51
		c6.43,0,12.315-4.251,14.06-11.444c0.327-1.308,0.437-2.616,0.437-4.142V217.376z"/>
	<path class="st7" d="M436.106,248.658c0.218-3.597,0.436-8.938,0.436-13.625v-63.761h9.483v33.134h0.218
		c3.379-5.886,9.482-9.7,17.983-9.7c13.079,0,22.344,10.899,22.235,26.921c0,18.856-11.881,28.229-23.652,28.229
		c-7.629,0-13.732-2.942-17.656-9.918h-0.327l-0.437,8.72H436.106z M446.025,227.513c0,1.199,0.218,2.397,0.436,3.488
		c1.853,6.648,7.411,11.227,14.387,11.227c10.027,0,16.022-8.175,16.022-20.273c0-10.572-5.45-19.619-15.695-19.619
		c-6.539,0-12.643,4.469-14.604,11.771c-0.219,1.09-0.545,2.397-0.545,3.924V227.513z"/>
	<path class="st7" d="M501.288,195.904l11.554,31.172c1.198,3.488,2.507,7.629,3.378,10.79h0.219
		c0.98-3.161,2.07-7.193,3.379-11.008l10.463-30.954h10.137l-14.388,37.603c-6.866,18.093-11.553,27.357-18.093,33.025
		c-4.687,4.142-9.373,5.776-11.771,6.212l-2.397-8.065c2.397-0.763,5.559-2.288,8.393-4.687c2.615-2.07,5.886-5.776,8.065-10.682
		c0.436-0.98,0.763-1.743,0.763-2.288s-0.218-1.309-0.653-2.507l-19.511-48.612H501.288z"/>
</g>
</svg>